<mxfile host="Electron" modified="2023-12-09T10:02:56.678Z" agent="Mozilla/5.0 (Windows NT 10.0; Win64; x64) AppleWebKit/537.36 (KHTML, like Gecko) draw.io/21.6.5 Chrome/114.0.5735.243 Electron/25.3.1 Safari/537.36" etag="fCbiz8ZO1fcFEU0Y8FD7" version="21.6.5" type="device">
  <diagram name="Page-1" id="7X7NXqTp-10EE5dI9Xwn">
    <mxGraphModel dx="1050" dy="621" grid="1" gridSize="10" guides="1" tooltips="1" connect="1" arrows="1" fold="1" page="1" pageScale="1" pageWidth="850" pageHeight="1100" math="0" shadow="0">
      <root>
        <mxCell id="0" />
        <mxCell id="1" parent="0" />
        <mxCell id="VoCrSMWybbmyNBzzKw-d-1" value="" style="rounded=0;whiteSpace=wrap;html=1;strokeColor=none;" parent="1" vertex="1">
          <mxGeometry x="85" y="161" width="683" height="240" as="geometry" />
        </mxCell>
        <mxCell id="KE9l33dWld-9MvRUj79x-199" style="edgeStyle=orthogonalEdgeStyle;rounded=0;orthogonalLoop=1;jettySize=auto;html=1;exitX=1;exitY=0.5;exitDx=0;exitDy=0;entryX=0;entryY=0.5;entryDx=0;entryDy=0;fontSize=9;" parent="1" source="KE9l33dWld-9MvRUj79x-197" target="KE9l33dWld-9MvRUj79x-141" edge="1">
          <mxGeometry relative="1" as="geometry">
            <Array as="points">
              <mxPoint x="648" y="284" />
              <mxPoint x="648" y="258" />
            </Array>
          </mxGeometry>
        </mxCell>
        <mxCell id="KE9l33dWld-9MvRUj79x-201" style="edgeStyle=orthogonalEdgeStyle;rounded=0;orthogonalLoop=1;jettySize=auto;html=1;exitX=1;exitY=0.5;exitDx=0;exitDy=0;entryX=0;entryY=0.5;entryDx=0;entryDy=0;fontSize=9;" parent="1" source="KE9l33dWld-9MvRUj79x-197" target="KE9l33dWld-9MvRUj79x-143" edge="1">
          <mxGeometry relative="1" as="geometry">
            <Array as="points">
              <mxPoint x="648" y="284" />
              <mxPoint x="648" y="312" />
            </Array>
          </mxGeometry>
        </mxCell>
        <mxCell id="KE9l33dWld-9MvRUj79x-197" value="" style="rounded=0;whiteSpace=wrap;html=1;fontFamily=Bahnschrift;fontSize=9;labelBorderColor=none;labelBackgroundColor=none;dashed=1;" parent="1" vertex="1">
          <mxGeometry x="217" y="176.25" width="422" height="215.5" as="geometry" />
        </mxCell>
        <mxCell id="KE9l33dWld-9MvRUj79x-145" style="edgeStyle=orthogonalEdgeStyle;rounded=0;orthogonalLoop=1;jettySize=auto;html=1;exitX=1;exitY=0.5;exitDx=0;exitDy=0;entryX=0;entryY=0.5;entryDx=0;entryDy=0;fontFamily=Bahnschrift;fontSize=9;" parent="1" source="KE9l33dWld-9MvRUj79x-40" target="KE9l33dWld-9MvRUj79x-135" edge="1">
          <mxGeometry relative="1" as="geometry" />
        </mxCell>
        <mxCell id="KE9l33dWld-9MvRUj79x-40" value="&lt;font style=&quot;font-size: 10px;&quot;&gt;Latent Space&lt;br&gt;&lt;/font&gt;&lt;br&gt;&lt;br&gt;&lt;br&gt;&lt;br&gt;&lt;br&gt;&lt;br&gt;" style="rounded=1;whiteSpace=wrap;html=1;fontFamily=Bahnschrift;fontSize=9;labelBorderColor=none;labelBackgroundColor=none;strokeColor=default;dashed=1;" parent="1" vertex="1">
          <mxGeometry x="373" y="240.5" width="110" height="86.5" as="geometry" />
        </mxCell>
        <mxCell id="KE9l33dWld-9MvRUj79x-144" style="edgeStyle=orthogonalEdgeStyle;rounded=0;orthogonalLoop=1;jettySize=auto;html=1;exitX=1;exitY=0.5;exitDx=0;exitDy=0;entryX=0;entryY=0.5;entryDx=0;entryDy=0;fontFamily=Bahnschrift;fontSize=9;" parent="1" source="KE9l33dWld-9MvRUj79x-134" target="KE9l33dWld-9MvRUj79x-40" edge="1">
          <mxGeometry relative="1" as="geometry" />
        </mxCell>
        <mxCell id="KE9l33dWld-9MvRUj79x-134" value="" style="rounded=1;whiteSpace=wrap;html=1;fillColor=#e1d5e7;fontFamily=Bahnschrift;fontSize=9;labelBorderColor=none;labelBackgroundColor=none;strokeColor=default;opacity=40;" parent="1" vertex="1">
          <mxGeometry x="225" y="199" width="132" height="170" as="geometry" />
        </mxCell>
        <mxCell id="KE9l33dWld-9MvRUj79x-5" value="" style="ellipse;whiteSpace=wrap;html=1;aspect=fixed;fillColor=#e1d5e7;strokeColor=default;fontFamily=Bahnschrift;fontSize=9;" parent="1" vertex="1">
          <mxGeometry x="235" y="240" width="23" height="23" as="geometry" />
        </mxCell>
        <mxCell id="KE9l33dWld-9MvRUj79x-10" value="" style="ellipse;whiteSpace=wrap;html=1;aspect=fixed;fillColor=#e1d5e7;strokeColor=default;fontFamily=Bahnschrift;fontSize=9;" parent="1" vertex="1">
          <mxGeometry x="235" y="273" width="23" height="23" as="geometry" />
        </mxCell>
        <mxCell id="KE9l33dWld-9MvRUj79x-15" value="" style="ellipse;whiteSpace=wrap;html=1;aspect=fixed;fillColor=#e1d5e7;strokeColor=default;fontFamily=Bahnschrift;fontSize=9;" parent="1" vertex="1">
          <mxGeometry x="235" y="306" width="23" height="23" as="geometry" />
        </mxCell>
        <mxCell id="KE9l33dWld-9MvRUj79x-18" value="" style="ellipse;whiteSpace=wrap;html=1;aspect=fixed;fillColor=#e1d5e7;strokeColor=default;fontFamily=Bahnschrift;fontSize=9;" parent="1" vertex="1">
          <mxGeometry x="278" y="223.5" width="23" height="23" as="geometry" />
        </mxCell>
        <mxCell id="KE9l33dWld-9MvRUj79x-1" style="rounded=0;orthogonalLoop=1;jettySize=auto;html=1;exitX=1;exitY=0.5;exitDx=0;exitDy=0;entryX=0;entryY=0.5;entryDx=0;entryDy=0;endArrow=none;endFill=0;fontFamily=Bahnschrift;fontSize=9;strokeColor=default;" parent="1" source="KE9l33dWld-9MvRUj79x-5" target="KE9l33dWld-9MvRUj79x-18" edge="1">
          <mxGeometry relative="1" as="geometry" />
        </mxCell>
        <mxCell id="KE9l33dWld-9MvRUj79x-6" style="edgeStyle=none;rounded=0;orthogonalLoop=1;jettySize=auto;html=1;exitX=1;exitY=0.5;exitDx=0;exitDy=0;entryX=0;entryY=0.5;entryDx=0;entryDy=0;endArrow=none;endFill=0;fontFamily=Bahnschrift;fontSize=9;strokeColor=default;" parent="1" source="KE9l33dWld-9MvRUj79x-10" target="KE9l33dWld-9MvRUj79x-18" edge="1">
          <mxGeometry relative="1" as="geometry" />
        </mxCell>
        <mxCell id="KE9l33dWld-9MvRUj79x-11" style="edgeStyle=none;rounded=0;orthogonalLoop=1;jettySize=auto;html=1;exitX=1;exitY=0.5;exitDx=0;exitDy=0;entryX=0;entryY=0.5;entryDx=0;entryDy=0;endArrow=none;endFill=0;fontFamily=Bahnschrift;fontSize=9;strokeColor=default;" parent="1" source="KE9l33dWld-9MvRUj79x-15" target="KE9l33dWld-9MvRUj79x-18" edge="1">
          <mxGeometry relative="1" as="geometry" />
        </mxCell>
        <mxCell id="KE9l33dWld-9MvRUj79x-21" value="" style="ellipse;whiteSpace=wrap;html=1;aspect=fixed;fillColor=#e1d5e7;strokeColor=default;fontFamily=Bahnschrift;fontSize=9;" parent="1" vertex="1">
          <mxGeometry x="278" y="256.5" width="23" height="23" as="geometry" />
        </mxCell>
        <mxCell id="KE9l33dWld-9MvRUj79x-2" style="edgeStyle=none;rounded=0;orthogonalLoop=1;jettySize=auto;html=1;exitX=1;exitY=0.5;exitDx=0;exitDy=0;entryX=0;entryY=0.5;entryDx=0;entryDy=0;endArrow=none;endFill=0;fontFamily=Bahnschrift;fontSize=9;strokeColor=default;" parent="1" source="KE9l33dWld-9MvRUj79x-5" target="KE9l33dWld-9MvRUj79x-21" edge="1">
          <mxGeometry relative="1" as="geometry" />
        </mxCell>
        <mxCell id="KE9l33dWld-9MvRUj79x-7" style="edgeStyle=none;rounded=0;orthogonalLoop=1;jettySize=auto;html=1;exitX=1;exitY=0.5;exitDx=0;exitDy=0;entryX=0;entryY=0.5;entryDx=0;entryDy=0;endArrow=none;endFill=0;fontFamily=Bahnschrift;fontSize=9;strokeColor=default;" parent="1" source="KE9l33dWld-9MvRUj79x-10" target="KE9l33dWld-9MvRUj79x-21" edge="1">
          <mxGeometry relative="1" as="geometry" />
        </mxCell>
        <mxCell id="KE9l33dWld-9MvRUj79x-12" style="edgeStyle=none;rounded=0;orthogonalLoop=1;jettySize=auto;html=1;exitX=1;exitY=0.5;exitDx=0;exitDy=0;entryX=0;entryY=0.5;entryDx=0;entryDy=0;endArrow=none;endFill=0;fontFamily=Bahnschrift;fontSize=9;strokeColor=default;" parent="1" source="KE9l33dWld-9MvRUj79x-15" target="KE9l33dWld-9MvRUj79x-21" edge="1">
          <mxGeometry relative="1" as="geometry" />
        </mxCell>
        <mxCell id="KE9l33dWld-9MvRUj79x-24" value="" style="ellipse;whiteSpace=wrap;html=1;aspect=fixed;fillColor=#e1d5e7;strokeColor=default;fontFamily=Bahnschrift;fontSize=9;" parent="1" vertex="1">
          <mxGeometry x="278" y="289.5" width="23" height="23" as="geometry" />
        </mxCell>
        <mxCell id="KE9l33dWld-9MvRUj79x-3" style="edgeStyle=none;rounded=0;orthogonalLoop=1;jettySize=auto;html=1;exitX=1;exitY=0.5;exitDx=0;exitDy=0;entryX=0;entryY=0.5;entryDx=0;entryDy=0;endArrow=none;endFill=0;fontFamily=Bahnschrift;fontSize=9;strokeColor=default;" parent="1" source="KE9l33dWld-9MvRUj79x-5" target="KE9l33dWld-9MvRUj79x-24" edge="1">
          <mxGeometry relative="1" as="geometry" />
        </mxCell>
        <mxCell id="KE9l33dWld-9MvRUj79x-8" style="edgeStyle=none;rounded=0;orthogonalLoop=1;jettySize=auto;html=1;exitX=1;exitY=0.5;exitDx=0;exitDy=0;entryX=0;entryY=0.5;entryDx=0;entryDy=0;endArrow=none;endFill=0;fontFamily=Bahnschrift;fontSize=9;strokeColor=default;" parent="1" source="KE9l33dWld-9MvRUj79x-10" target="KE9l33dWld-9MvRUj79x-24" edge="1">
          <mxGeometry relative="1" as="geometry" />
        </mxCell>
        <mxCell id="KE9l33dWld-9MvRUj79x-13" style="edgeStyle=none;rounded=0;orthogonalLoop=1;jettySize=auto;html=1;exitX=1;exitY=0.5;exitDx=0;exitDy=0;entryX=0;entryY=0.5;entryDx=0;entryDy=0;endArrow=none;endFill=0;fontFamily=Bahnschrift;fontSize=9;strokeColor=default;" parent="1" source="KE9l33dWld-9MvRUj79x-15" target="KE9l33dWld-9MvRUj79x-24" edge="1">
          <mxGeometry relative="1" as="geometry" />
        </mxCell>
        <mxCell id="KE9l33dWld-9MvRUj79x-27" value="" style="ellipse;whiteSpace=wrap;html=1;aspect=fixed;fillColor=#e1d5e7;strokeColor=default;fontFamily=Bahnschrift;fontSize=9;" parent="1" vertex="1">
          <mxGeometry x="278" y="322.5" width="23" height="23" as="geometry" />
        </mxCell>
        <mxCell id="KE9l33dWld-9MvRUj79x-4" style="edgeStyle=none;rounded=0;orthogonalLoop=1;jettySize=auto;html=1;exitX=1;exitY=0.5;exitDx=0;exitDy=0;entryX=0;entryY=0.5;entryDx=0;entryDy=0;endArrow=none;endFill=0;fontFamily=Bahnschrift;fontSize=9;strokeColor=default;" parent="1" source="KE9l33dWld-9MvRUj79x-5" target="KE9l33dWld-9MvRUj79x-27" edge="1">
          <mxGeometry relative="1" as="geometry" />
        </mxCell>
        <mxCell id="KE9l33dWld-9MvRUj79x-9" style="edgeStyle=none;rounded=0;orthogonalLoop=1;jettySize=auto;html=1;exitX=1;exitY=0.5;exitDx=0;exitDy=0;entryX=0;entryY=0.5;entryDx=0;entryDy=0;endArrow=none;endFill=0;fontFamily=Bahnschrift;fontSize=9;strokeColor=default;" parent="1" source="KE9l33dWld-9MvRUj79x-10" target="KE9l33dWld-9MvRUj79x-27" edge="1">
          <mxGeometry relative="1" as="geometry" />
        </mxCell>
        <mxCell id="KE9l33dWld-9MvRUj79x-14" style="edgeStyle=none;rounded=0;orthogonalLoop=1;jettySize=auto;html=1;exitX=1;exitY=0.5;exitDx=0;exitDy=0;entryX=0;entryY=0.5;entryDx=0;entryDy=0;endArrow=none;endFill=0;fontFamily=Bahnschrift;fontSize=9;strokeColor=default;" parent="1" source="KE9l33dWld-9MvRUj79x-15" target="KE9l33dWld-9MvRUj79x-27" edge="1">
          <mxGeometry relative="1" as="geometry" />
        </mxCell>
        <mxCell id="KE9l33dWld-9MvRUj79x-28" value="" style="ellipse;whiteSpace=wrap;html=1;aspect=fixed;fillColor=#e1d5e7;strokeColor=default;fontFamily=Bahnschrift;fontSize=9;" parent="1" vertex="1">
          <mxGeometry x="325" y="256.5" width="23" height="23" as="geometry" />
        </mxCell>
        <mxCell id="KE9l33dWld-9MvRUj79x-16" style="edgeStyle=none;rounded=0;orthogonalLoop=1;jettySize=auto;html=1;exitX=1;exitY=0.5;exitDx=0;exitDy=0;entryX=0;entryY=0.5;entryDx=0;entryDy=0;endArrow=none;endFill=0;fontFamily=Bahnschrift;fontSize=9;strokeColor=default;" parent="1" source="KE9l33dWld-9MvRUj79x-18" target="KE9l33dWld-9MvRUj79x-28" edge="1">
          <mxGeometry relative="1" as="geometry" />
        </mxCell>
        <mxCell id="KE9l33dWld-9MvRUj79x-19" style="edgeStyle=none;rounded=0;orthogonalLoop=1;jettySize=auto;html=1;exitX=1;exitY=0.5;exitDx=0;exitDy=0;entryX=0;entryY=0.5;entryDx=0;entryDy=0;endArrow=none;endFill=0;fontFamily=Bahnschrift;fontSize=9;strokeColor=default;" parent="1" source="KE9l33dWld-9MvRUj79x-21" target="KE9l33dWld-9MvRUj79x-28" edge="1">
          <mxGeometry relative="1" as="geometry" />
        </mxCell>
        <mxCell id="KE9l33dWld-9MvRUj79x-22" style="edgeStyle=none;rounded=0;orthogonalLoop=1;jettySize=auto;html=1;exitX=1;exitY=0.5;exitDx=0;exitDy=0;entryX=0;entryY=0.5;entryDx=0;entryDy=0;endArrow=none;endFill=0;fontFamily=Bahnschrift;fontSize=9;strokeColor=default;" parent="1" source="KE9l33dWld-9MvRUj79x-24" target="KE9l33dWld-9MvRUj79x-28" edge="1">
          <mxGeometry relative="1" as="geometry" />
        </mxCell>
        <mxCell id="KE9l33dWld-9MvRUj79x-25" style="edgeStyle=none;rounded=0;orthogonalLoop=1;jettySize=auto;html=1;exitX=1;exitY=0.5;exitDx=0;exitDy=0;entryX=0;entryY=0.5;entryDx=0;entryDy=0;endArrow=none;endFill=0;fontFamily=Bahnschrift;fontSize=9;strokeColor=default;" parent="1" source="KE9l33dWld-9MvRUj79x-27" target="KE9l33dWld-9MvRUj79x-28" edge="1">
          <mxGeometry relative="1" as="geometry" />
        </mxCell>
        <mxCell id="KE9l33dWld-9MvRUj79x-29" value="" style="ellipse;whiteSpace=wrap;html=1;aspect=fixed;fillColor=#e1d5e7;strokeColor=default;fontFamily=Bahnschrift;fontSize=9;" parent="1" vertex="1">
          <mxGeometry x="325" y="289.5" width="23" height="23" as="geometry" />
        </mxCell>
        <mxCell id="KE9l33dWld-9MvRUj79x-17" style="edgeStyle=none;rounded=0;orthogonalLoop=1;jettySize=auto;html=1;exitX=1;exitY=0.5;exitDx=0;exitDy=0;entryX=0;entryY=0.5;entryDx=0;entryDy=0;endArrow=none;endFill=0;fontFamily=Bahnschrift;fontSize=9;strokeColor=default;" parent="1" source="KE9l33dWld-9MvRUj79x-18" target="KE9l33dWld-9MvRUj79x-29" edge="1">
          <mxGeometry relative="1" as="geometry" />
        </mxCell>
        <mxCell id="KE9l33dWld-9MvRUj79x-20" style="edgeStyle=none;rounded=0;orthogonalLoop=1;jettySize=auto;html=1;exitX=1;exitY=0.5;exitDx=0;exitDy=0;entryX=0;entryY=0.5;entryDx=0;entryDy=0;endArrow=none;endFill=0;fontFamily=Bahnschrift;fontSize=9;strokeColor=default;" parent="1" source="KE9l33dWld-9MvRUj79x-21" target="KE9l33dWld-9MvRUj79x-29" edge="1">
          <mxGeometry relative="1" as="geometry" />
        </mxCell>
        <mxCell id="KE9l33dWld-9MvRUj79x-23" style="edgeStyle=none;rounded=0;orthogonalLoop=1;jettySize=auto;html=1;exitX=1;exitY=0.5;exitDx=0;exitDy=0;entryX=0;entryY=0.5;entryDx=0;entryDy=0;endArrow=none;endFill=0;fontFamily=Bahnschrift;fontSize=9;strokeColor=default;" parent="1" source="KE9l33dWld-9MvRUj79x-24" target="KE9l33dWld-9MvRUj79x-29" edge="1">
          <mxGeometry relative="1" as="geometry" />
        </mxCell>
        <mxCell id="KE9l33dWld-9MvRUj79x-26" style="edgeStyle=none;rounded=0;orthogonalLoop=1;jettySize=auto;html=1;exitX=1;exitY=0.5;exitDx=0;exitDy=0;entryX=0;entryY=0.5;entryDx=0;entryDy=0;endArrow=none;endFill=0;fontFamily=Bahnschrift;fontSize=9;strokeColor=default;" parent="1" source="KE9l33dWld-9MvRUj79x-27" target="KE9l33dWld-9MvRUj79x-29" edge="1">
          <mxGeometry relative="1" as="geometry" />
        </mxCell>
        <mxCell id="KE9l33dWld-9MvRUj79x-82" value="" style="ellipse;whiteSpace=wrap;html=1;aspect=fixed;fillColor=#e1d5e7;strokeColor=default;fontFamily=Bahnschrift;fontSize=9;" parent="1" vertex="1">
          <mxGeometry x="235" y="339" width="23" height="23" as="geometry" />
        </mxCell>
        <mxCell id="KE9l33dWld-9MvRUj79x-83" value="" style="ellipse;whiteSpace=wrap;html=1;aspect=fixed;fillColor=#e1d5e7;strokeColor=default;fontFamily=Bahnschrift;fontSize=9;" parent="1" vertex="1">
          <mxGeometry x="235" y="207" width="23" height="23" as="geometry" />
        </mxCell>
        <mxCell id="KE9l33dWld-9MvRUj79x-85" style="edgeStyle=none;rounded=0;orthogonalLoop=1;jettySize=auto;html=1;exitX=1;exitY=0.5;exitDx=0;exitDy=0;entryX=0;entryY=0.5;entryDx=0;entryDy=0;endArrow=none;endFill=0;fontFamily=Bahnschrift;fontSize=9;strokeColor=default;" parent="1" source="KE9l33dWld-9MvRUj79x-82" target="KE9l33dWld-9MvRUj79x-27" edge="1">
          <mxGeometry relative="1" as="geometry">
            <mxPoint x="258" y="346" as="sourcePoint" />
            <mxPoint x="278" y="362" as="targetPoint" />
          </mxGeometry>
        </mxCell>
        <mxCell id="KE9l33dWld-9MvRUj79x-86" style="edgeStyle=none;rounded=0;orthogonalLoop=1;jettySize=auto;html=1;exitX=1;exitY=0.5;exitDx=0;exitDy=0;entryX=0;entryY=0.5;entryDx=0;entryDy=0;endArrow=none;endFill=0;fontFamily=Bahnschrift;fontSize=9;strokeColor=default;" parent="1" source="KE9l33dWld-9MvRUj79x-82" target="KE9l33dWld-9MvRUj79x-24" edge="1">
          <mxGeometry relative="1" as="geometry">
            <mxPoint x="278" y="338" as="sourcePoint" />
            <mxPoint x="298" y="354" as="targetPoint" />
          </mxGeometry>
        </mxCell>
        <mxCell id="KE9l33dWld-9MvRUj79x-87" style="edgeStyle=none;rounded=0;orthogonalLoop=1;jettySize=auto;html=1;exitX=1;exitY=0.5;exitDx=0;exitDy=0;entryX=0;entryY=0.5;entryDx=0;entryDy=0;endArrow=none;endFill=0;fontFamily=Bahnschrift;fontSize=9;strokeColor=default;" parent="1" source="KE9l33dWld-9MvRUj79x-82" target="KE9l33dWld-9MvRUj79x-21" edge="1">
          <mxGeometry relative="1" as="geometry">
            <mxPoint x="288" y="348" as="sourcePoint" />
            <mxPoint x="308" y="364" as="targetPoint" />
          </mxGeometry>
        </mxCell>
        <mxCell id="KE9l33dWld-9MvRUj79x-88" style="edgeStyle=none;rounded=0;orthogonalLoop=1;jettySize=auto;html=1;exitX=1;exitY=0.5;exitDx=0;exitDy=0;entryX=0;entryY=0.5;entryDx=0;entryDy=0;endArrow=none;endFill=0;fontFamily=Bahnschrift;fontSize=9;strokeColor=default;" parent="1" source="KE9l33dWld-9MvRUj79x-82" target="KE9l33dWld-9MvRUj79x-18" edge="1">
          <mxGeometry relative="1" as="geometry">
            <mxPoint x="298" y="358" as="sourcePoint" />
            <mxPoint x="318" y="374" as="targetPoint" />
          </mxGeometry>
        </mxCell>
        <mxCell id="KE9l33dWld-9MvRUj79x-89" style="edgeStyle=none;rounded=0;orthogonalLoop=1;jettySize=auto;html=1;exitX=1;exitY=0.5;exitDx=0;exitDy=0;entryX=0;entryY=0.5;entryDx=0;entryDy=0;endArrow=none;endFill=0;fontFamily=Bahnschrift;fontSize=9;strokeColor=default;" parent="1" source="KE9l33dWld-9MvRUj79x-83" target="KE9l33dWld-9MvRUj79x-18" edge="1">
          <mxGeometry relative="1" as="geometry">
            <mxPoint x="308" y="368" as="sourcePoint" />
            <mxPoint x="328" y="384" as="targetPoint" />
          </mxGeometry>
        </mxCell>
        <mxCell id="KE9l33dWld-9MvRUj79x-90" style="edgeStyle=none;rounded=0;orthogonalLoop=1;jettySize=auto;html=1;exitX=1;exitY=0.5;exitDx=0;exitDy=0;entryX=0;entryY=0.5;entryDx=0;entryDy=0;endArrow=none;endFill=0;fontFamily=Bahnschrift;fontSize=9;strokeColor=default;" parent="1" source="KE9l33dWld-9MvRUj79x-83" target="KE9l33dWld-9MvRUj79x-21" edge="1">
          <mxGeometry relative="1" as="geometry">
            <mxPoint x="268" y="201" as="sourcePoint" />
            <mxPoint x="288" y="217" as="targetPoint" />
          </mxGeometry>
        </mxCell>
        <mxCell id="KE9l33dWld-9MvRUj79x-91" style="edgeStyle=none;rounded=0;orthogonalLoop=1;jettySize=auto;html=1;exitX=1;exitY=0.5;exitDx=0;exitDy=0;entryX=0;entryY=0.5;entryDx=0;entryDy=0;endArrow=none;endFill=0;fontFamily=Bahnschrift;fontSize=9;strokeColor=default;" parent="1" source="KE9l33dWld-9MvRUj79x-83" target="KE9l33dWld-9MvRUj79x-24" edge="1">
          <mxGeometry relative="1" as="geometry">
            <mxPoint x="268" y="229" as="sourcePoint" />
            <mxPoint x="288" y="245" as="targetPoint" />
          </mxGeometry>
        </mxCell>
        <mxCell id="KE9l33dWld-9MvRUj79x-92" style="edgeStyle=none;rounded=0;orthogonalLoop=1;jettySize=auto;html=1;exitX=1;exitY=0.5;exitDx=0;exitDy=0;entryX=0;entryY=0.5;entryDx=0;entryDy=0;endArrow=none;endFill=0;fontFamily=Bahnschrift;fontSize=9;strokeColor=default;" parent="1" source="KE9l33dWld-9MvRUj79x-83" target="KE9l33dWld-9MvRUj79x-27" edge="1">
          <mxGeometry relative="1" as="geometry">
            <mxPoint x="278" y="239" as="sourcePoint" />
            <mxPoint x="298" y="255" as="targetPoint" />
          </mxGeometry>
        </mxCell>
        <mxCell id="KE9l33dWld-9MvRUj79x-140" value="Channel&lt;br style=&quot;font-size: 9px;&quot;&gt;&lt;i style=&quot;font-size: 9px;&quot;&gt;(AWGN or&lt;br style=&quot;font-size: 9px;&quot;&gt;Rayleigh or&lt;br style=&quot;font-size: 9px;&quot;&gt;Nakagami-m)&lt;/i&gt;" style="rounded=1;whiteSpace=wrap;html=1;fontFamily=Bahnschrift;fontSize=9;labelBorderColor=none;labelBackgroundColor=none;strokeColor=default;fillColor=#dae8fc;" parent="1" vertex="1">
          <mxGeometry x="379" y="263" width="98" height="58" as="geometry" />
        </mxCell>
        <mxCell id="KE9l33dWld-9MvRUj79x-141" value="Decoded&lt;br&gt;Image/Signal" style="rounded=1;whiteSpace=wrap;html=1;fontFamily=Bahnschrift;fontSize=10;labelBorderColor=none;labelBackgroundColor=none;strokeColor=default;fillColor=#d5e8d4;" parent="1" vertex="1">
          <mxGeometry x="665" y="242" width="90" height="31" as="geometry" />
        </mxCell>
        <mxCell id="KE9l33dWld-9MvRUj79x-147" style="edgeStyle=orthogonalEdgeStyle;rounded=0;orthogonalLoop=1;jettySize=auto;html=1;exitX=0.25;exitY=1;exitDx=0;exitDy=0;entryX=0;entryY=0.5;entryDx=0;entryDy=0;fontFamily=Bahnschrift;fillColor=#fad9d5;strokeColor=default;" parent="1" source="KE9l33dWld-9MvRUj79x-142" target="KE9l33dWld-9MvRUj79x-146" edge="1">
          <mxGeometry relative="1" as="geometry">
            <Array as="points">
              <mxPoint x="117" y="323" />
            </Array>
          </mxGeometry>
        </mxCell>
        <mxCell id="KE9l33dWld-9MvRUj79x-142" value="Input&lt;br&gt;Image/Signal" style="rounded=1;whiteSpace=wrap;html=1;fontFamily=Bahnschrift;fontSize=10;labelBorderColor=none;labelBackgroundColor=none;strokeColor=default;fillColor=#fad9d5;" parent="1" vertex="1">
          <mxGeometry x="95" y="261" width="90" height="35" as="geometry" />
        </mxCell>
        <mxCell id="KE9l33dWld-9MvRUj79x-143" value="Computation of Metrics&lt;br&gt;(BER, Loss, etc)" style="rounded=1;whiteSpace=wrap;html=1;fontFamily=Bahnschrift;fontSize=10;labelBorderColor=none;labelBackgroundColor=none;strokeColor=default;fillColor=#d5e8d4;" parent="1" vertex="1">
          <mxGeometry x="665" y="286" width="90" height="53" as="geometry" />
        </mxCell>
        <mxCell id="KE9l33dWld-9MvRUj79x-198" style="edgeStyle=orthogonalEdgeStyle;rounded=0;orthogonalLoop=1;jettySize=auto;html=1;exitX=1;exitY=0.5;exitDx=0;exitDy=0;entryX=0;entryY=0.5;entryDx=0;entryDy=0;fontSize=9;" parent="1" source="KE9l33dWld-9MvRUj79x-146" target="KE9l33dWld-9MvRUj79x-197" edge="1">
          <mxGeometry relative="1" as="geometry">
            <Array as="points">
              <mxPoint x="197" y="323" />
              <mxPoint x="197" y="284" />
            </Array>
          </mxGeometry>
        </mxCell>
        <mxCell id="KE9l33dWld-9MvRUj79x-146" value="Patches" style="rounded=1;whiteSpace=wrap;html=1;fontFamily=Bahnschrift;fontSize=10;labelBorderColor=none;labelBackgroundColor=none;strokeColor=default;fillColor=#fad9d5;" parent="1" vertex="1">
          <mxGeometry x="135" y="308" width="50" height="31" as="geometry" />
        </mxCell>
        <mxCell id="KE9l33dWld-9MvRUj79x-152" value="Transmitter (Encoder)" style="text;html=1;align=center;verticalAlign=middle;resizable=0;points=[];autosize=1;strokeColor=none;fillColor=none;fontFamily=Bahnschrift;fontSize=9;" parent="1" vertex="1">
          <mxGeometry x="236" y="370" width="110" height="20" as="geometry" />
        </mxCell>
        <mxCell id="KE9l33dWld-9MvRUj79x-153" value="Receiver (Decoder)" style="text;html=1;align=center;verticalAlign=middle;resizable=0;points=[];autosize=1;strokeColor=none;fillColor=none;fontFamily=Bahnschrift;fontSize=9;" parent="1" vertex="1">
          <mxGeometry x="513.25" y="370" width="100" height="20" as="geometry" />
        </mxCell>
        <mxCell id="KE9l33dWld-9MvRUj79x-155" value="" style="group;fontSize=9;" parent="1" vertex="1" connectable="0">
          <mxGeometry x="497.25" y="199.5" width="132" height="170" as="geometry" />
        </mxCell>
        <mxCell id="KE9l33dWld-9MvRUj79x-135" value="" style="rounded=1;whiteSpace=wrap;html=1;fillColor=#fff2cc;fontFamily=Bahnschrift;fontSize=9;labelBorderColor=none;labelBackgroundColor=none;strokeColor=default;opacity=40;" parent="KE9l33dWld-9MvRUj79x-155" vertex="1">
          <mxGeometry width="132" height="170" as="geometry" />
        </mxCell>
        <mxCell id="KE9l33dWld-9MvRUj79x-97" value="" style="ellipse;whiteSpace=wrap;html=1;aspect=fixed;fillColor=#ffe6cc;strokeColor=default;fontFamily=Bahnschrift;fontSize=9;flipH=1;rotation=-180;" parent="KE9l33dWld-9MvRUj79x-155" vertex="1">
          <mxGeometry x="97.75" y="106.5" width="23" height="23" as="geometry" />
        </mxCell>
        <mxCell id="KE9l33dWld-9MvRUj79x-102" value="" style="ellipse;whiteSpace=wrap;html=1;aspect=fixed;fillColor=#ffe6cc;strokeColor=default;fontFamily=Bahnschrift;fontSize=9;flipH=1;rotation=-180;" parent="KE9l33dWld-9MvRUj79x-155" vertex="1">
          <mxGeometry x="97.75" y="73.5" width="23" height="23" as="geometry" />
        </mxCell>
        <mxCell id="KE9l33dWld-9MvRUj79x-107" value="" style="ellipse;whiteSpace=wrap;html=1;aspect=fixed;fillColor=#ffe6cc;strokeColor=default;fontFamily=Bahnschrift;fontSize=9;flipH=1;rotation=-180;" parent="KE9l33dWld-9MvRUj79x-155" vertex="1">
          <mxGeometry x="97.75" y="40.5" width="23" height="23" as="geometry" />
        </mxCell>
        <mxCell id="KE9l33dWld-9MvRUj79x-110" value="" style="ellipse;whiteSpace=wrap;html=1;aspect=fixed;fillColor=#ffe6cc;strokeColor=default;fontFamily=Bahnschrift;fontSize=9;flipH=1;rotation=-180;" parent="KE9l33dWld-9MvRUj79x-155" vertex="1">
          <mxGeometry x="54.75" y="123.5" width="23" height="23" as="geometry" />
        </mxCell>
        <mxCell id="KE9l33dWld-9MvRUj79x-93" style="rounded=0;orthogonalLoop=1;jettySize=auto;html=1;exitX=1;exitY=0.5;exitDx=0;exitDy=0;entryX=0;entryY=0.5;entryDx=0;entryDy=0;endArrow=none;endFill=0;fontFamily=Bahnschrift;fontSize=9;strokeColor=default;" parent="KE9l33dWld-9MvRUj79x-155" source="KE9l33dWld-9MvRUj79x-97" target="KE9l33dWld-9MvRUj79x-110" edge="1">
          <mxGeometry relative="1" as="geometry" />
        </mxCell>
        <mxCell id="KE9l33dWld-9MvRUj79x-98" style="edgeStyle=none;rounded=0;orthogonalLoop=1;jettySize=auto;html=1;exitX=1;exitY=0.5;exitDx=0;exitDy=0;entryX=0;entryY=0.5;entryDx=0;entryDy=0;endArrow=none;endFill=0;fontFamily=Bahnschrift;fontSize=9;strokeColor=default;" parent="KE9l33dWld-9MvRUj79x-155" source="KE9l33dWld-9MvRUj79x-102" target="KE9l33dWld-9MvRUj79x-110" edge="1">
          <mxGeometry relative="1" as="geometry" />
        </mxCell>
        <mxCell id="KE9l33dWld-9MvRUj79x-103" style="edgeStyle=none;rounded=0;orthogonalLoop=1;jettySize=auto;html=1;exitX=1;exitY=0.5;exitDx=0;exitDy=0;entryX=0;entryY=0.5;entryDx=0;entryDy=0;endArrow=none;endFill=0;fontFamily=Bahnschrift;fontSize=9;strokeColor=default;" parent="KE9l33dWld-9MvRUj79x-155" source="KE9l33dWld-9MvRUj79x-107" target="KE9l33dWld-9MvRUj79x-110" edge="1">
          <mxGeometry relative="1" as="geometry" />
        </mxCell>
        <mxCell id="KE9l33dWld-9MvRUj79x-113" value="" style="ellipse;whiteSpace=wrap;html=1;aspect=fixed;fillColor=#ffe6cc;strokeColor=default;fontFamily=Bahnschrift;fontSize=9;flipH=1;rotation=-180;" parent="KE9l33dWld-9MvRUj79x-155" vertex="1">
          <mxGeometry x="54.75" y="90.5" width="23" height="23" as="geometry" />
        </mxCell>
        <mxCell id="KE9l33dWld-9MvRUj79x-94" style="edgeStyle=none;rounded=0;orthogonalLoop=1;jettySize=auto;html=1;exitX=1;exitY=0.5;exitDx=0;exitDy=0;entryX=0;entryY=0.5;entryDx=0;entryDy=0;endArrow=none;endFill=0;fontFamily=Bahnschrift;fontSize=9;strokeColor=default;" parent="KE9l33dWld-9MvRUj79x-155" source="KE9l33dWld-9MvRUj79x-97" target="KE9l33dWld-9MvRUj79x-113" edge="1">
          <mxGeometry relative="1" as="geometry" />
        </mxCell>
        <mxCell id="KE9l33dWld-9MvRUj79x-99" style="edgeStyle=none;rounded=0;orthogonalLoop=1;jettySize=auto;html=1;exitX=1;exitY=0.5;exitDx=0;exitDy=0;entryX=0;entryY=0.5;entryDx=0;entryDy=0;endArrow=none;endFill=0;fontFamily=Bahnschrift;fontSize=9;strokeColor=default;" parent="KE9l33dWld-9MvRUj79x-155" source="KE9l33dWld-9MvRUj79x-102" target="KE9l33dWld-9MvRUj79x-113" edge="1">
          <mxGeometry relative="1" as="geometry" />
        </mxCell>
        <mxCell id="KE9l33dWld-9MvRUj79x-104" style="edgeStyle=none;rounded=0;orthogonalLoop=1;jettySize=auto;html=1;exitX=1;exitY=0.5;exitDx=0;exitDy=0;entryX=0;entryY=0.5;entryDx=0;entryDy=0;endArrow=none;endFill=0;fontFamily=Bahnschrift;fontSize=9;strokeColor=default;" parent="KE9l33dWld-9MvRUj79x-155" source="KE9l33dWld-9MvRUj79x-107" target="KE9l33dWld-9MvRUj79x-113" edge="1">
          <mxGeometry relative="1" as="geometry" />
        </mxCell>
        <mxCell id="KE9l33dWld-9MvRUj79x-116" value="" style="ellipse;whiteSpace=wrap;html=1;aspect=fixed;fillColor=#ffe6cc;strokeColor=default;fontFamily=Bahnschrift;fontSize=9;flipH=1;rotation=-180;" parent="KE9l33dWld-9MvRUj79x-155" vertex="1">
          <mxGeometry x="54.75" y="57.5" width="23" height="23" as="geometry" />
        </mxCell>
        <mxCell id="KE9l33dWld-9MvRUj79x-95" style="edgeStyle=none;rounded=0;orthogonalLoop=1;jettySize=auto;html=1;exitX=1;exitY=0.5;exitDx=0;exitDy=0;entryX=0;entryY=0.5;entryDx=0;entryDy=0;endArrow=none;endFill=0;fontFamily=Bahnschrift;fontSize=9;strokeColor=default;" parent="KE9l33dWld-9MvRUj79x-155" source="KE9l33dWld-9MvRUj79x-97" target="KE9l33dWld-9MvRUj79x-116" edge="1">
          <mxGeometry relative="1" as="geometry" />
        </mxCell>
        <mxCell id="KE9l33dWld-9MvRUj79x-100" style="edgeStyle=none;rounded=0;orthogonalLoop=1;jettySize=auto;html=1;exitX=1;exitY=0.5;exitDx=0;exitDy=0;entryX=0;entryY=0.5;entryDx=0;entryDy=0;endArrow=none;endFill=0;fontFamily=Bahnschrift;fontSize=9;strokeColor=default;" parent="KE9l33dWld-9MvRUj79x-155" source="KE9l33dWld-9MvRUj79x-102" target="KE9l33dWld-9MvRUj79x-116" edge="1">
          <mxGeometry relative="1" as="geometry" />
        </mxCell>
        <mxCell id="KE9l33dWld-9MvRUj79x-105" style="edgeStyle=none;rounded=0;orthogonalLoop=1;jettySize=auto;html=1;exitX=1;exitY=0.5;exitDx=0;exitDy=0;entryX=0;entryY=0.5;entryDx=0;entryDy=0;endArrow=none;endFill=0;fontFamily=Bahnschrift;fontSize=9;strokeColor=default;" parent="KE9l33dWld-9MvRUj79x-155" source="KE9l33dWld-9MvRUj79x-107" target="KE9l33dWld-9MvRUj79x-116" edge="1">
          <mxGeometry relative="1" as="geometry" />
        </mxCell>
        <mxCell id="KE9l33dWld-9MvRUj79x-119" value="" style="ellipse;whiteSpace=wrap;html=1;aspect=fixed;fillColor=#ffe6cc;strokeColor=default;fontFamily=Bahnschrift;fontSize=9;flipH=1;rotation=-180;" parent="KE9l33dWld-9MvRUj79x-155" vertex="1">
          <mxGeometry x="54.75" y="24.5" width="23" height="23" as="geometry" />
        </mxCell>
        <mxCell id="KE9l33dWld-9MvRUj79x-96" style="edgeStyle=none;rounded=0;orthogonalLoop=1;jettySize=auto;html=1;exitX=1;exitY=0.5;exitDx=0;exitDy=0;entryX=0;entryY=0.5;entryDx=0;entryDy=0;endArrow=none;endFill=0;fontFamily=Bahnschrift;fontSize=9;strokeColor=default;" parent="KE9l33dWld-9MvRUj79x-155" source="KE9l33dWld-9MvRUj79x-97" target="KE9l33dWld-9MvRUj79x-119" edge="1">
          <mxGeometry relative="1" as="geometry" />
        </mxCell>
        <mxCell id="KE9l33dWld-9MvRUj79x-101" style="edgeStyle=none;rounded=0;orthogonalLoop=1;jettySize=auto;html=1;exitX=1;exitY=0.5;exitDx=0;exitDy=0;entryX=0;entryY=0.5;entryDx=0;entryDy=0;endArrow=none;endFill=0;fontFamily=Bahnschrift;fontSize=9;strokeColor=default;" parent="KE9l33dWld-9MvRUj79x-155" source="KE9l33dWld-9MvRUj79x-102" target="KE9l33dWld-9MvRUj79x-119" edge="1">
          <mxGeometry relative="1" as="geometry" />
        </mxCell>
        <mxCell id="KE9l33dWld-9MvRUj79x-106" style="edgeStyle=none;rounded=0;orthogonalLoop=1;jettySize=auto;html=1;exitX=1;exitY=0.5;exitDx=0;exitDy=0;entryX=0;entryY=0.5;entryDx=0;entryDy=0;endArrow=none;endFill=0;fontFamily=Bahnschrift;fontSize=9;strokeColor=default;" parent="KE9l33dWld-9MvRUj79x-155" source="KE9l33dWld-9MvRUj79x-107" target="KE9l33dWld-9MvRUj79x-119" edge="1">
          <mxGeometry relative="1" as="geometry" />
        </mxCell>
        <mxCell id="KE9l33dWld-9MvRUj79x-120" value="" style="ellipse;whiteSpace=wrap;html=1;aspect=fixed;fillColor=#ffe6cc;strokeColor=default;fontFamily=Bahnschrift;fontSize=9;flipH=1;rotation=-180;" parent="KE9l33dWld-9MvRUj79x-155" vertex="1">
          <mxGeometry x="7.75" y="90.5" width="23" height="23" as="geometry" />
        </mxCell>
        <mxCell id="KE9l33dWld-9MvRUj79x-108" style="edgeStyle=none;rounded=0;orthogonalLoop=1;jettySize=auto;html=1;exitX=1;exitY=0.5;exitDx=0;exitDy=0;entryX=0;entryY=0.5;entryDx=0;entryDy=0;endArrow=none;endFill=0;fontFamily=Bahnschrift;fontSize=9;strokeColor=default;" parent="KE9l33dWld-9MvRUj79x-155" source="KE9l33dWld-9MvRUj79x-110" target="KE9l33dWld-9MvRUj79x-120" edge="1">
          <mxGeometry relative="1" as="geometry" />
        </mxCell>
        <mxCell id="KE9l33dWld-9MvRUj79x-111" style="edgeStyle=none;rounded=0;orthogonalLoop=1;jettySize=auto;html=1;exitX=1;exitY=0.5;exitDx=0;exitDy=0;entryX=0;entryY=0.5;entryDx=0;entryDy=0;endArrow=none;endFill=0;fontFamily=Bahnschrift;fontSize=9;strokeColor=default;" parent="KE9l33dWld-9MvRUj79x-155" source="KE9l33dWld-9MvRUj79x-113" target="KE9l33dWld-9MvRUj79x-120" edge="1">
          <mxGeometry relative="1" as="geometry" />
        </mxCell>
        <mxCell id="KE9l33dWld-9MvRUj79x-114" style="edgeStyle=none;rounded=0;orthogonalLoop=1;jettySize=auto;html=1;exitX=1;exitY=0.5;exitDx=0;exitDy=0;entryX=0;entryY=0.5;entryDx=0;entryDy=0;endArrow=none;endFill=0;fontFamily=Bahnschrift;fontSize=9;strokeColor=default;" parent="KE9l33dWld-9MvRUj79x-155" source="KE9l33dWld-9MvRUj79x-116" target="KE9l33dWld-9MvRUj79x-120" edge="1">
          <mxGeometry relative="1" as="geometry" />
        </mxCell>
        <mxCell id="KE9l33dWld-9MvRUj79x-117" style="edgeStyle=none;rounded=0;orthogonalLoop=1;jettySize=auto;html=1;exitX=1;exitY=0.5;exitDx=0;exitDy=0;entryX=0;entryY=0.5;entryDx=0;entryDy=0;endArrow=none;endFill=0;fontFamily=Bahnschrift;fontSize=9;strokeColor=default;" parent="KE9l33dWld-9MvRUj79x-155" source="KE9l33dWld-9MvRUj79x-119" target="KE9l33dWld-9MvRUj79x-120" edge="1">
          <mxGeometry relative="1" as="geometry" />
        </mxCell>
        <mxCell id="KE9l33dWld-9MvRUj79x-121" value="" style="ellipse;whiteSpace=wrap;html=1;aspect=fixed;fillColor=#ffe6cc;strokeColor=default;fontFamily=Bahnschrift;fontSize=9;flipH=1;rotation=-180;" parent="KE9l33dWld-9MvRUj79x-155" vertex="1">
          <mxGeometry x="7.75" y="56.5" width="23" height="23" as="geometry" />
        </mxCell>
        <mxCell id="KE9l33dWld-9MvRUj79x-109" style="edgeStyle=none;rounded=0;orthogonalLoop=1;jettySize=auto;html=1;exitX=1;exitY=0.5;exitDx=0;exitDy=0;entryX=0;entryY=0.5;entryDx=0;entryDy=0;endArrow=none;endFill=0;fontFamily=Bahnschrift;fontSize=9;strokeColor=default;" parent="KE9l33dWld-9MvRUj79x-155" source="KE9l33dWld-9MvRUj79x-110" target="KE9l33dWld-9MvRUj79x-121" edge="1">
          <mxGeometry relative="1" as="geometry" />
        </mxCell>
        <mxCell id="KE9l33dWld-9MvRUj79x-112" style="edgeStyle=none;rounded=0;orthogonalLoop=1;jettySize=auto;html=1;exitX=1;exitY=0.5;exitDx=0;exitDy=0;entryX=0;entryY=0.5;entryDx=0;entryDy=0;endArrow=none;endFill=0;fontFamily=Bahnschrift;fontSize=9;strokeColor=default;" parent="KE9l33dWld-9MvRUj79x-155" source="KE9l33dWld-9MvRUj79x-113" target="KE9l33dWld-9MvRUj79x-121" edge="1">
          <mxGeometry relative="1" as="geometry" />
        </mxCell>
        <mxCell id="KE9l33dWld-9MvRUj79x-115" style="edgeStyle=none;rounded=0;orthogonalLoop=1;jettySize=auto;html=1;exitX=1;exitY=0.5;exitDx=0;exitDy=0;entryX=0;entryY=0.5;entryDx=0;entryDy=0;endArrow=none;endFill=0;fontFamily=Bahnschrift;fontSize=9;strokeColor=default;" parent="KE9l33dWld-9MvRUj79x-155" source="KE9l33dWld-9MvRUj79x-116" target="KE9l33dWld-9MvRUj79x-121" edge="1">
          <mxGeometry relative="1" as="geometry" />
        </mxCell>
        <mxCell id="KE9l33dWld-9MvRUj79x-118" style="edgeStyle=none;rounded=0;orthogonalLoop=1;jettySize=auto;html=1;exitX=1;exitY=0.5;exitDx=0;exitDy=0;entryX=0;entryY=0.5;entryDx=0;entryDy=0;endArrow=none;endFill=0;fontFamily=Bahnschrift;fontSize=9;strokeColor=default;" parent="KE9l33dWld-9MvRUj79x-155" source="KE9l33dWld-9MvRUj79x-119" target="KE9l33dWld-9MvRUj79x-121" edge="1">
          <mxGeometry relative="1" as="geometry" />
        </mxCell>
        <mxCell id="KE9l33dWld-9MvRUj79x-122" value="" style="ellipse;whiteSpace=wrap;html=1;aspect=fixed;fillColor=#ffe6cc;strokeColor=default;fontFamily=Bahnschrift;fontSize=9;flipH=1;rotation=-180;" parent="KE9l33dWld-9MvRUj79x-155" vertex="1">
          <mxGeometry x="97.75" y="7.5" width="23" height="23" as="geometry" />
        </mxCell>
        <mxCell id="KE9l33dWld-9MvRUj79x-123" value="" style="ellipse;whiteSpace=wrap;html=1;aspect=fixed;fillColor=#ffe6cc;strokeColor=default;fontFamily=Bahnschrift;fontSize=9;flipH=1;rotation=-180;" parent="KE9l33dWld-9MvRUj79x-155" vertex="1">
          <mxGeometry x="97.75" y="139.5" width="23" height="23" as="geometry" />
        </mxCell>
        <mxCell id="KE9l33dWld-9MvRUj79x-124" style="edgeStyle=none;rounded=0;orthogonalLoop=1;jettySize=auto;html=1;exitX=1;exitY=0.5;exitDx=0;exitDy=0;entryX=0;entryY=0.5;entryDx=0;entryDy=0;endArrow=none;endFill=0;fontFamily=Bahnschrift;fontSize=9;strokeColor=default;" parent="KE9l33dWld-9MvRUj79x-155" source="KE9l33dWld-9MvRUj79x-122" target="KE9l33dWld-9MvRUj79x-119" edge="1">
          <mxGeometry relative="1" as="geometry">
            <mxPoint x="77.75" y="23.5" as="sourcePoint" />
            <mxPoint x="97.75" y="7.5" as="targetPoint" />
          </mxGeometry>
        </mxCell>
        <mxCell id="KE9l33dWld-9MvRUj79x-125" style="edgeStyle=none;rounded=0;orthogonalLoop=1;jettySize=auto;html=1;exitX=1;exitY=0.5;exitDx=0;exitDy=0;entryX=0;entryY=0.5;entryDx=0;entryDy=0;endArrow=none;endFill=0;fontFamily=Bahnschrift;fontSize=9;strokeColor=default;" parent="KE9l33dWld-9MvRUj79x-155" source="KE9l33dWld-9MvRUj79x-122" target="KE9l33dWld-9MvRUj79x-116" edge="1">
          <mxGeometry relative="1" as="geometry">
            <mxPoint x="97.75" y="31.5" as="sourcePoint" />
            <mxPoint x="117.75" y="15.5" as="targetPoint" />
          </mxGeometry>
        </mxCell>
        <mxCell id="KE9l33dWld-9MvRUj79x-126" style="edgeStyle=none;rounded=0;orthogonalLoop=1;jettySize=auto;html=1;exitX=1;exitY=0.5;exitDx=0;exitDy=0;entryX=0;entryY=0.5;entryDx=0;entryDy=0;endArrow=none;endFill=0;fontFamily=Bahnschrift;fontSize=9;strokeColor=default;" parent="KE9l33dWld-9MvRUj79x-155" source="KE9l33dWld-9MvRUj79x-122" target="KE9l33dWld-9MvRUj79x-113" edge="1">
          <mxGeometry relative="1" as="geometry">
            <mxPoint x="107.75" y="21.5" as="sourcePoint" />
            <mxPoint x="127.75" y="5.5" as="targetPoint" />
          </mxGeometry>
        </mxCell>
        <mxCell id="KE9l33dWld-9MvRUj79x-127" style="edgeStyle=none;rounded=0;orthogonalLoop=1;jettySize=auto;html=1;exitX=1;exitY=0.5;exitDx=0;exitDy=0;entryX=0;entryY=0.5;entryDx=0;entryDy=0;endArrow=none;endFill=0;fontFamily=Bahnschrift;fontSize=9;strokeColor=default;" parent="KE9l33dWld-9MvRUj79x-155" source="KE9l33dWld-9MvRUj79x-122" target="KE9l33dWld-9MvRUj79x-110" edge="1">
          <mxGeometry relative="1" as="geometry">
            <mxPoint x="117.75" y="11.5" as="sourcePoint" />
            <mxPoint x="137.75" y="-4.5" as="targetPoint" />
          </mxGeometry>
        </mxCell>
        <mxCell id="KE9l33dWld-9MvRUj79x-128" style="edgeStyle=none;rounded=0;orthogonalLoop=1;jettySize=auto;html=1;exitX=1;exitY=0.5;exitDx=0;exitDy=0;entryX=0;entryY=0.5;entryDx=0;entryDy=0;endArrow=none;endFill=0;fontFamily=Bahnschrift;fontSize=9;strokeColor=default;" parent="KE9l33dWld-9MvRUj79x-155" source="KE9l33dWld-9MvRUj79x-123" target="KE9l33dWld-9MvRUj79x-110" edge="1">
          <mxGeometry relative="1" as="geometry">
            <mxPoint x="127.75" y="1.5" as="sourcePoint" />
            <mxPoint x="147.75" y="-14.5" as="targetPoint" />
          </mxGeometry>
        </mxCell>
        <mxCell id="KE9l33dWld-9MvRUj79x-129" style="edgeStyle=none;rounded=0;orthogonalLoop=1;jettySize=auto;html=1;exitX=1;exitY=0.5;exitDx=0;exitDy=0;entryX=0;entryY=0.5;entryDx=0;entryDy=0;endArrow=none;endFill=0;fontFamily=Bahnschrift;fontSize=9;strokeColor=default;" parent="KE9l33dWld-9MvRUj79x-155" source="KE9l33dWld-9MvRUj79x-123" target="KE9l33dWld-9MvRUj79x-113" edge="1">
          <mxGeometry relative="1" as="geometry">
            <mxPoint x="87.75" y="168.5" as="sourcePoint" />
            <mxPoint x="107.75" y="152.5" as="targetPoint" />
          </mxGeometry>
        </mxCell>
        <mxCell id="KE9l33dWld-9MvRUj79x-130" style="edgeStyle=none;rounded=0;orthogonalLoop=1;jettySize=auto;html=1;exitX=1;exitY=0.5;exitDx=0;exitDy=0;entryX=0;entryY=0.5;entryDx=0;entryDy=0;endArrow=none;endFill=0;fontFamily=Bahnschrift;fontSize=9;strokeColor=default;" parent="KE9l33dWld-9MvRUj79x-155" source="KE9l33dWld-9MvRUj79x-123" target="KE9l33dWld-9MvRUj79x-116" edge="1">
          <mxGeometry relative="1" as="geometry">
            <mxPoint x="87.75" y="140.5" as="sourcePoint" />
            <mxPoint x="107.75" y="124.5" as="targetPoint" />
          </mxGeometry>
        </mxCell>
        <mxCell id="KE9l33dWld-9MvRUj79x-131" style="edgeStyle=none;rounded=0;orthogonalLoop=1;jettySize=auto;html=1;exitX=1;exitY=0.5;exitDx=0;exitDy=0;entryX=0;entryY=0.5;entryDx=0;entryDy=0;endArrow=none;endFill=0;fontFamily=Bahnschrift;fontSize=9;strokeColor=default;" parent="KE9l33dWld-9MvRUj79x-155" source="KE9l33dWld-9MvRUj79x-123" target="KE9l33dWld-9MvRUj79x-119" edge="1">
          <mxGeometry relative="1" as="geometry">
            <mxPoint x="97.75" y="130.5" as="sourcePoint" />
            <mxPoint x="117.75" y="114.5" as="targetPoint" />
          </mxGeometry>
        </mxCell>
        <mxCell id="KE9l33dWld-9MvRUj79x-200" value="Autoencoder – General Architecture" style="rounded=0;whiteSpace=wrap;html=1;fontFamily=Bahnschrift;fontSize=10;labelBorderColor=none;labelBackgroundColor=none;dashed=1;" parent="1" vertex="1">
          <mxGeometry x="217" y="170" width="422" height="23" as="geometry" />
        </mxCell>
        <mxCell id="KE9l33dWld-9MvRUj79x-202" value="Lower Dimensional&lt;br&gt;Propagation" style="text;html=1;align=center;verticalAlign=middle;resizable=0;points=[];autosize=1;strokeColor=none;fillColor=none;fontFamily=Bahnschrift;fontSize=9;" parent="1" vertex="1">
          <mxGeometry x="378" y="323" width="100" height="40" as="geometry" />
        </mxCell>
      </root>
    </mxGraphModel>
  </diagram>
</mxfile>
